<?xml version="1.0" encoding="utf-8"?>
<!-- Generator: Adobe Illustrator 25.0.1, SVG Export Plug-In . SVG Version: 6.00 Build 0)  -->
<svg version="1.1" id="Layer_1" xmlns="http://www.w3.org/2000/svg" xmlns:xlink="http://www.w3.org/1999/xlink" x="0px" y="0px"
	 viewBox="0 0 497 94.7" style="enable-background:new 0 0 497 94.7;" xml:space="preserve">
<style type="text/css">
	.st0{fill:#FFFFFF;}
</style>
<g>
	<g>
		<path class="st0" d="M175.9,51.4v14.4h-39.2c0.4,4.4,1.8,7.6,4.3,9.4c2.5,1.9,6.6,2.8,12.2,2.8h22.7v14.4h-24.7
			c-5.4,0-9.7-0.5-13.1-1.4c-3.4-1-6.6-2.6-9.6-4.9c-8.2-6.3-12.3-15.8-12.3-28.3c0-8.2,2.2-15.4,6.5-21.4c3-4.2,6.6-7.1,10.7-8.9
			c4.2-1.8,9.6-2.6,16.4-2.6h26.1v14.4h-24.7c-5.1,0-8.6,0.9-10.7,2.6c-2.1,1.7-3.3,4.9-3.8,9.5C136.7,51.4,175.9,51.4,175.9,51.4z"
			/>
		<path class="st0" d="M207.3,24.9h35.9c5.3,0,9.4,0.4,12.3,1.2c2.8,0.8,5.4,2.2,7.7,4.3c4.7,4.3,7.1,11.1,7.1,20.5v41.6h-18.6V48.8
			c0-3.3-0.7-5.7-2.2-7.2s-3.9-2.2-7.3-2.2H226v53.1h-18.6V24.9H207.3z"/>
		<path class="st0" d="M355.1,24.9v14.4h-22.3c-7.4,0-12.6,1.7-15.5,5c-2.8,3.2-4.1,8-4.1,14.4c0,7.3,2.3,12.5,6.8,15.8
			c1.9,1.4,3.9,2.3,6,2.8c2.2,0.5,5.2,0.7,9.1,0.7h20.1v14.4h-25.4c-6.8,0-12.2-0.7-16.2-2.1s-7.5-3.8-10.6-7.3
			c-5.8-6.5-8.7-14.7-8.7-24.6c0-12,3.5-21,10.4-27c2.8-2.4,6.1-4.1,10-5.1s8.9-1.5,15.1-1.5L355.1,24.9L355.1,24.9L355.1,24.9z"/>
		<path class="st0" d="M497,24.9h-87.7v0.2c-11.5,0.3-20.3,3.8-26.4,10.7c-5.7,6.3-8.5,14.2-8.5,23.7c0,11.1,2.9,19.6,8.8,25.5
			c6.4,6.5,15.3,9.7,26.6,9.7c10.9,0,19.5-2.9,25.8-8.7c6.9-6.3,10.3-14.7,10.3-25.3c0-8.3-1.9-15.4-5.8-21.4H497L497,24.9L497,24.9
			z M426.8,59.8c0,13.8-5.5,20.7-16.5,20.7c-6.4,0-11.1-2.5-14.2-7.4c-1.8-2.9-2.7-7.2-2.7-12.9c0-13.9,5.6-20.8,16.7-20.8
			C421.2,39.5,426.8,46.3,426.8,59.8z"/>
		<path class="st0" d="M92.7,39.3V24.9H75.5V0H57v24.9H0v14.4h56.9v27.8c0,9.1,1.7,15.6,5.1,19.5c3.4,3.9,9.1,5.8,17.2,5.8h13.5V78
			h-7.3c-4,0-6.8-1.1-8.3-3.3c-1-1.5-1.6-5.1-1.6-10.8V39.3H92.7z"/>
	</g>
</g>
</svg>
